<svg width="24" height="24" viewBox="0 0 24 24" fill="none" xmlns="http://www.w3.org/2000/svg">
<rect width="23.9999" height="23.9999" rx="11.9999" fill="white" fill-opacity="0.3"/>
<path fill-rule="evenodd" clip-rule="evenodd" d="M17.9552 12.0369C17.9552 12.0693 17.9552 12.1046 17.9538 12.1462C17.9526 12.2476 17.9503 12.3577 17.9479 12.4757L17.9465 12.5417C17.9364 12.9511 17.9161 13.3604 17.8856 13.7405C17.8464 14.2361 17.7913 14.6424 17.7231 14.9147C17.6331 15.2702 17.3691 15.5519 17.0354 15.6457C16.7307 15.7319 15.9632 15.8012 14.92 15.8427C14.3918 15.8643 13.8231 15.8781 13.2558 15.8858C13.057 15.8889 12.8728 15.8904 12.7074 15.8904H12.2924L11.744 15.8858C11.1767 15.8781 10.6094 15.8643 10.0798 15.8427C9.0366 15.7996 8.26762 15.7319 7.96439 15.6457C7.63068 15.5503 7.36662 15.2702 7.27666 14.9147C7.20847 14.6424 7.15334 14.2361 7.11416 13.7405C7.08369 13.3604 7.06483 12.9511 7.05323 12.5417C7.04915 12.4076 7.04762 12.2816 7.04625 12.1687L7.04597 12.1462C7.04597 12.1239 7.04555 12.1029 7.04516 12.0834C7.04483 12.0667 7.04452 12.0512 7.04452 12.0369V11.9631C7.04452 11.9307 7.04452 11.8954 7.04597 11.8538C7.0472 11.7525 7.04946 11.6423 7.05188 11.5244L7.05323 11.4583C7.06338 11.0489 7.08369 10.6396 7.11416 10.2595C7.15334 9.76393 7.20847 9.35765 7.27666 9.08526C7.36662 8.72976 7.63068 8.44814 7.96439 8.35426C8.26907 8.26808 9.0366 8.19883 10.0798 8.15728C10.6079 8.13573 11.1767 8.12188 11.744 8.11419C11.9427 8.11111 12.127 8.10957 12.2924 8.10957H12.7074L13.2558 8.11419C13.8231 8.12188 14.3904 8.13573 14.92 8.15728C15.9632 8.20037 16.7321 8.26808 17.0354 8.35426C17.3691 8.44968 17.6331 8.72976 17.7231 9.08526C17.7913 9.35765 17.8464 9.76393 17.8856 10.2595C17.9161 10.6396 17.9349 11.0489 17.9465 11.4583C17.9506 11.5925 17.9521 11.7186 17.9535 11.8314L17.9538 11.8538C17.9538 11.8761 17.9542 11.8971 17.9546 11.9166C17.9549 11.9333 17.9552 11.9488 17.9552 11.9631V12.0369ZM14.5747 11.9846L11.2086 14.0622V9.93783L14.5747 11.9846Z" fill="black"/>
<path fill-rule="evenodd" clip-rule="evenodd" d="M18.9999 11.9569C18.9999 11.9231 18.9999 11.8846 18.9984 11.84C18.9972 11.7322 18.9948 11.6129 18.9923 11.4861L18.9912 11.426C18.9796 10.9966 18.9593 10.5688 18.9273 10.1656C18.8838 9.61003 18.82 9.14681 18.7329 8.79901C18.641 8.43606 18.461 8.10503 18.2107 7.83902C17.9604 7.57301 17.6487 7.38134 17.3067 7.28316C16.8961 7.1662 16.0923 7.09387 14.9606 7.04925C14.4223 7.0277 13.8463 7.01385 13.2703 7.00616C13.0904 7.00341 12.9221 7.00189 12.7684 7.0005L12.7132 7H12.2866L12.2314 7.0005C12.0777 7.00189 11.9093 7.00341 11.7295 7.00616C11.1534 7.01385 10.5774 7.0277 10.0392 7.04925C8.90747 7.09541 8.10222 7.16774 7.69307 7.28316C7.35095 7.3811 7.03911 7.57269 6.78879 7.83874C6.53848 8.10478 6.35848 8.43594 6.26684 8.79901C6.17834 9.14681 6.11595 9.61003 6.07242 10.1656C6.0405 10.5688 6.02019 10.9966 6.00858 11.426C6.00449 11.5663 6.00296 11.6985 6.00159 11.8174L6.00133 11.84C6.00133 11.8638 6.00091 11.8859 6.00053 11.9065C6.00019 11.9244 5.99988 11.9411 5.99988 11.9569V12.0431C5.99988 12.0769 5.99988 12.1154 6.00133 12.16C6.00258 12.2677 6.00492 12.3869 6.0074 12.5136L6.00858 12.574C6.02019 13.0034 6.0405 13.4312 6.07242 13.8344C6.11595 14.39 6.17979 14.8532 6.26684 15.201C6.45256 15.9381 6.99809 16.5199 7.69307 16.7168C8.10222 16.8338 8.90747 16.9061 10.0392 16.9508C10.5774 16.9723 11.1534 16.9861 11.7295 16.9938C11.9093 16.9966 12.0777 16.9981 12.2314 16.9995L12.2866 17H12.7132L12.7684 16.9995C12.9221 16.9981 13.0904 16.9966 13.2703 16.9938C13.8463 16.9861 14.4223 16.9723 14.9606 16.9508C16.0923 16.9046 16.8975 16.8323 17.3067 16.7168C18.0017 16.5199 18.5472 15.9397 18.7329 15.201C18.8214 14.8532 18.8838 14.39 18.9273 13.8344C18.9593 13.4312 18.9796 13.0034 18.9912 12.574C18.9953 12.4337 18.9968 12.3015 18.9982 12.1826L18.9984 12.16C18.9984 12.1362 18.9988 12.1141 18.9992 12.0935C18.9996 12.0756 18.9999 12.0589 18.9999 12.0431V11.9569ZM17.9538 12.1462C17.9552 12.1046 17.9552 12.0693 17.9552 12.0369V11.9631C17.9552 11.9488 17.9549 11.9333 17.9546 11.9166C17.9542 11.8971 17.9538 11.8761 17.9538 11.8538L17.9535 11.8314C17.9521 11.7186 17.9506 11.5925 17.9465 11.4583C17.9349 11.0489 17.9161 10.6396 17.8856 10.2595C17.8464 9.76393 17.7913 9.35765 17.7231 9.08526C17.6331 8.72976 17.3691 8.44968 17.0354 8.35426C16.7321 8.26808 15.9632 8.20037 14.92 8.15728C14.3904 8.13573 13.8231 8.12188 13.2558 8.11419L12.7074 8.10957H12.2924C12.127 8.10957 11.9427 8.11111 11.744 8.11419C11.1767 8.12188 10.6079 8.13573 10.0798 8.15728C9.0366 8.19883 8.26907 8.26808 7.96439 8.35426C7.63068 8.44814 7.36662 8.72976 7.27666 9.08526C7.20847 9.35765 7.15334 9.76393 7.11416 10.2595C7.08369 10.6396 7.06338 11.0489 7.05323 11.4583L7.05188 11.5244C7.04946 11.6423 7.0472 11.7525 7.04597 11.8538C7.04452 11.8954 7.04452 11.9307 7.04452 11.9631V12.0369C7.04452 12.0512 7.04483 12.0667 7.04516 12.0834C7.04555 12.1029 7.04597 12.1239 7.04597 12.1462L7.04625 12.1687C7.04762 12.2816 7.04915 12.4076 7.05323 12.5417C7.06483 12.9511 7.08369 13.3604 7.11416 13.7405C7.15334 14.2361 7.20847 14.6424 7.27666 14.9147C7.36662 15.2702 7.63068 15.5503 7.96439 15.6457C8.26762 15.7319 9.0366 15.7996 10.0798 15.8427C10.6094 15.8643 11.1767 15.8781 11.744 15.8858L12.2924 15.8904H12.7074C12.8728 15.8904 13.057 15.8889 13.2558 15.8858C13.8231 15.8781 14.3918 15.8643 14.92 15.8427C15.9632 15.8012 16.7307 15.7319 17.0354 15.6457C17.3691 15.5519 17.6331 15.2702 17.7231 14.9147C17.7913 14.6424 17.8464 14.2361 17.8856 13.7405C17.9161 13.3604 17.9364 12.9511 17.9465 12.5417L17.9479 12.4757C17.9503 12.3577 17.9526 12.2476 17.9538 12.1462Z" fill="black"/>
</svg>
