<svg width="50" height="50" viewBox="0 0 50 50" fill="none" xmlns="http://www.w3.org/2000/svg">
<path d="M46.875 5.24554H19.1964C18.9509 5.24554 18.75 5.44643 18.75 5.69197V8.81697C18.75 9.0625 18.9509 9.26339 19.1964 9.26339H46.875C47.1206 9.26339 47.3214 9.0625 47.3214 8.81697V5.69197C47.3214 5.44643 47.1206 5.24554 46.875 5.24554ZM46.875 28.9063H19.1964C18.9509 28.9063 18.75 29.1071 18.75 29.3527V32.4777C18.75 32.7232 18.9509 32.9241 19.1964 32.9241H46.875C47.1206 32.9241 47.3214 32.7232 47.3214 32.4777V29.3527C47.3214 29.1071 47.1206 28.9063 46.875 28.9063ZM46.875 40.7366H3.12502C2.87948 40.7366 2.67859 40.9375 2.67859 41.183V44.308C2.67859 44.5536 2.87948 44.7545 3.12502 44.7545H46.875C47.1206 44.7545 47.3214 44.5536 47.3214 44.308V41.183C47.3214 40.9375 47.1206 40.7366 46.875 40.7366ZM46.875 17.0759H3.12502C2.87948 17.0759 2.67859 17.2768 2.67859 17.5223V20.6473C2.67859 20.8929 2.87948 21.0938 3.12502 21.0938H46.875C47.1206 21.0938 47.3214 20.8929 47.3214 20.6473V17.5223C47.3214 17.2768 47.1206 17.0759 46.875 17.0759Z" fill="white"/>
</svg>
