<svg width="24" height="24" viewBox="0 0 24 24" fill="none" xmlns="http://www.w3.org/2000/svg">
<rect width="24" height="24" rx="12" fill="white" fill-opacity="0.3"/>
<path d="M18.6558 8.60334C18.7606 8.25526 18.6558 8 18.1603 8H16.5187C16.101 8 15.9101 8.22082 15.8053 8.46336C15.8053 8.46336 14.9707 10.4987 13.788 11.8184C13.4062 12.2024 13.2318 12.3237 13.0237 12.3237C12.9197 12.3237 12.7685 12.2024 12.7685 11.8543V8.60334C12.7685 8.18564 12.6479 8 12.2999 8H9.72034C9.45984 8 9.30264 8.19313 9.30264 8.37727C9.30264 8.77251 9.894 8.86383 9.95463 9.97768V12.394C9.95463 12.9232 9.85957 13.0198 9.64997 13.0198C9.09379 13.0198 7.74041 10.977 6.93721 8.63852C6.78076 8.18414 6.62281 8.00075 6.20362 8.00075H4.56279C4.09345 8.00075 3.99988 8.22157 3.99988 8.4641C3.99988 8.89976 4.55605 11.0556 6.59063 13.9068C7.94701 15.8538 9.85657 16.9093 11.5962 16.9093C12.639 16.9093 12.7677 16.675 12.7677 16.2708V14.7991C12.7677 14.3305 12.8673 14.2362 13.1974 14.2362C13.4399 14.2362 13.8576 14.359 14.8315 15.2969C15.9438 16.4093 16.128 16.9086 16.753 16.9086H18.3938C18.8624 16.9086 19.0967 16.6743 18.962 16.2116C18.8145 15.7513 18.2831 15.0813 17.5779 14.2886C17.1947 13.8365 16.622 13.3499 16.4476 13.1066C16.2043 12.793 16.2747 12.6545 16.4476 12.3761C16.4483 12.3768 18.4477 9.56074 18.6558 8.60334Z" fill="black"/>
</svg>
