<svg width="24" height="24" viewBox="0 0 24 24" fill="none" xmlns="http://www.w3.org/2000/svg">
<path d="M17.4068 21.2511L17.4011 21.2511C13.517 21.2461 9.79338 19.7009 7.04688 16.9544C4.30051 14.208 2.75532 10.4846 2.75015 6.60064C2.75027 5.57972 3.15588 4.60064 3.87779 3.87873C4.59981 3.15671 5.57907 2.75109 6.60015 2.75109V2.75111L6.60587 2.75107C6.81503 2.74948 7.02384 2.76846 7.22929 2.80774L7.24477 2.8107L7.26037 2.81301C7.45713 2.84213 7.65057 2.89049 7.83788 2.95739L7.83788 2.9574L7.84184 2.95879C7.8829 2.9732 7.9195 2.99808 7.948 3.03096C7.9765 3.06385 7.99592 3.1036 8.00434 3.14629L8.00649 3.1572L8.00897 3.16804L9.37872 9.16694C9.37875 9.16707 9.37878 9.16721 9.37881 9.16734C9.38794 9.20793 9.3868 9.25016 9.37549 9.29021C9.36413 9.33038 9.3429 9.36708 9.31372 9.39694L9.30705 9.40376L9.30056 9.41075C9.2918 9.42018 9.28601 9.42632 9.28242 9.4301C9.27322 9.43641 9.24994 9.45166 9.20151 9.47974C9.04779 9.56885 8.75766 9.72124 8.13397 10.0458L7.50242 10.3744L7.79771 11.0222C8.85725 13.3466 10.7162 15.2132 13.0363 16.2823L13.6835 16.5805L14.0144 15.9493C14.3439 15.3208 14.4989 15.0278 14.5894 14.8725C14.6188 14.822 14.6345 14.7983 14.6408 14.7891C14.6446 14.7856 14.6508 14.7797 14.6605 14.7707L14.6675 14.7642L14.6743 14.7575C14.7042 14.7283 14.7409 14.7071 14.781 14.6958C14.821 14.6845 14.8632 14.6833 14.9037 14.6924C14.9039 14.6924 14.9041 14.6925 14.9043 14.6925L20.9006 16.0617C20.901 16.0618 20.9013 16.0618 20.9016 16.0619C20.9425 16.0716 20.9804 16.0914 21.0117 16.1196C21.0432 16.1481 21.0669 16.1841 21.0806 16.2242L21.0806 16.2242L21.0835 16.2324C21.1529 16.4277 21.2053 16.6286 21.2401 16.833C21.2734 17.042 21.2901 17.2533 21.2902 17.4649C21.2734 18.4797 20.8565 19.447 20.1302 20.1561C19.4026 20.8664 18.4236 21.2601 17.4068 21.2511Z" stroke="black" stroke-width="1.5"/>
</svg>
