<svg width="24" height="24" viewBox="0 0 24 24" fill="none" xmlns="http://www.w3.org/2000/svg">
<rect width="24" height="24" rx="12" fill="white" fill-opacity="0.3"/>
<path d="M16.2729 12.5189C16.0773 12.1199 15.5254 11.7838 14.7918 12.3509C13.7928 13.149 12.1999 13.149 12.1999 13.149C12.1999 13.149 10.607 13.149 9.60796 12.3509C8.8744 11.7838 8.32248 12.1199 8.12687 12.5189C7.77755 13.219 8.16879 13.5621 9.05604 14.1291C9.81755 14.6192 10.8585 14.8012 11.5292 14.8712L10.9703 15.4313C10.1739 16.2224 9.40536 16.9855 8.88139 17.5176C8.567 17.8396 8.567 18.3507 8.88139 18.6517L8.9792 18.7637C9.29358 19.0788 9.81056 19.0788 10.1249 18.7637L12.1999 16.6775C13.0033 17.4686 13.7648 18.2317 14.2958 18.7637C14.6101 19.0788 15.1201 19.0788 15.4415 18.7637L15.5323 18.6517C15.8537 18.3507 15.8537 17.8396 15.5323 17.5176L13.4504 15.4313L12.8985 14.8642C13.5622 14.8012 14.5892 14.6122 15.3437 14.1291C16.231 13.5621 16.6222 13.219 16.2729 12.5189ZM12.1999 6.79923C13.164 6.79923 13.9465 7.58332 13.9465 8.54244C13.9465 9.50856 13.164 10.2857 12.1999 10.2857C11.2358 10.2857 10.4533 9.50856 10.4533 8.54244C10.4533 7.58332 11.2358 6.79923 12.1999 6.79923ZM12.1999 12.0849C14.156 12.0849 15.7349 10.5027 15.7349 8.54244C15.7349 7.60293 15.3625 6.70189 14.6995 6.03756C14.0366 5.37322 13.1374 5 12.1999 5C11.2623 5 10.3632 5.37322 9.70021 6.03756C9.03726 6.70189 8.66481 7.60293 8.66481 8.54244C8.66481 10.5027 10.2437 12.0849 12.1999 12.0849Z" fill="black"/>
</svg>
