<svg width="24" height="24" viewBox="0 0 24 24" fill="none" xmlns="http://www.w3.org/2000/svg">
<path d="M8.48012 10.7111C9.71012 10.0711 9.72012 10.0611 9.85012 9.92109L8.48012 10.7111ZM8.48012 10.7111C9.46512 12.8719 11.1933 14.6073 13.3501 15.6011C14.0001 14.3611 14.0101 14.3511 14.1501 14.2211C14.2696 14.1044 14.4163 14.0194 14.577 13.974C14.7377 13.9286 14.9073 13.9242 15.0701 13.9611L8.48012 10.7111ZM17.4067 21.2511L17.4011 21.2511C13.517 21.2461 9.79335 19.7009 7.04685 16.9544C4.30048 14.208 2.75529 10.4846 2.75012 6.60064C2.75024 5.57972 3.15585 4.60064 3.87776 3.87873C4.59978 3.15671 5.57904 2.75109 6.60012 2.75109V2.75111L6.60583 2.75107C6.815 2.74948 7.02381 2.76846 7.22926 2.80774L7.24474 2.8107L7.26033 2.81301C7.4571 2.84213 7.65054 2.89049 7.83785 2.95739L7.83785 2.9574L7.84181 2.95879C7.88287 2.9732 7.91946 2.99808 7.94796 3.03096C7.97646 3.06385 7.99589 3.1036 8.00431 3.14629L8.00646 3.1572L8.00894 3.16804L9.37869 9.16694C9.37872 9.16707 9.37875 9.16721 9.37878 9.16734C9.38791 9.20793 9.38677 9.25016 9.37545 9.29021C9.3641 9.33038 9.34287 9.36708 9.31369 9.39694L9.30702 9.40376L9.30053 9.41075C9.29177 9.42018 9.28598 9.42632 9.28239 9.4301C9.27319 9.43641 9.24991 9.45166 9.20147 9.47974C9.04776 9.56885 8.75763 9.72124 8.13394 10.0458L7.50239 10.3744L7.79768 11.0222C8.85722 13.3466 10.7162 15.2132 13.0362 16.2823L13.6835 16.5805L14.0144 15.9493C14.3439 15.3208 14.4989 15.0278 14.5894 14.8725C14.6188 14.822 14.6345 14.7983 14.6408 14.7891C14.6445 14.7856 14.6507 14.7797 14.6605 14.7707L14.6675 14.7642L14.6743 14.7575C14.7041 14.7283 14.7408 14.7071 14.781 14.6958C14.821 14.6845 14.8632 14.6833 14.9037 14.6924C14.9039 14.6924 14.9041 14.6925 14.9043 14.6925L20.9006 16.0617C20.9009 16.0618 20.9012 16.0618 20.9015 16.0619C20.9425 16.0716 20.9804 16.0914 21.0116 16.1196C21.0431 16.1481 21.0669 16.1841 21.0806 16.2242L21.0806 16.2242L21.0835 16.2324C21.1529 16.4277 21.2053 16.6286 21.2401 16.833C21.2734 17.042 21.2901 17.2533 21.2901 17.4649C21.2733 18.4797 20.8565 19.447 20.1302 20.1561C19.4026 20.8664 18.4235 21.2601 17.4067 21.2511ZM7.37012 2.07109C7.11637 2.02257 6.85846 1.99912 6.60012 2.00109L8.74012 3.00109C8.70642 2.83032 8.62873 2.6713 8.51473 2.53976C8.40073 2.40822 8.25437 2.30872 8.09012 2.25109C7.85659 2.16768 7.61543 2.10739 7.37012 2.07109Z" fill="white" stroke="#32A0FF" stroke-width="1.5"/>
</svg>
